<svg width="801" height="224" viewBox="0 0 801 224" fill="none" xmlns="http://www.w3.org/2000/svg">
<path d="M14.2352 2.9901C7.62818 6.2911 2.93318 11.7731 0.945175 18.5061C0.111175 21.3331 -0.141824 32.5801 0.082176 57.0001C0.433176 95.3591 0.254179 94.2891 7.56418 101.6C14.3572 108.392 16.8252 108.953 40.0082 108.978C64.2832 109.004 61.5842 110.061 79.1412 93.6491C85.1132 88.0671 91.2142 82.9581 92.6982 82.2951C94.5342 81.4761 102.605 81.0761 117.925 81.0451C137.397 81.0061 140.788 80.7701 142.925 79.3081C144.285 78.3771 145.729 77.1401 146.133 76.5581C146.537 75.9761 146.876 63.5751 146.888 49.0001C146.911 18.1771 146.393 15.5271 138.863 7.9171C130.907 -0.121902 131.932 0.000105887 72.3802 0.000105887H20.2172L14.2352 2.9901Z" fill="#0B5182"/>
<path d="M164.455 39.2231C162.246 42.3751 162.222 67.4471 164.423 72.7131C165.261 74.7201 170.211 80.7561 175.423 86.1271C180.634 91.4981 184.898 96.5281 184.898 97.3071C184.898 99.5771 178.117 99.8831 137.367 99.4561C106.266 99.1301 98.8412 99.3111 96.3212 100.461C94.6282 101.233 88.1602 106.426 81.9472 112C72.9734 120.051 69.0706 123.915 64.3731 125.832C59.4185 127.853 53.5798 127.706 39.9742 128.02C14.4842 128.607 12.6792 129.073 5.63418 136.871C0.137178 142.955 -0.253821 145.773 0.0911787 176.82L0.398178 204.5L3.14117 209.166C4.65017 211.732 7.75018 215.43 10.0322 217.382L10.1024 217.442C11.4715 218.614 12.5996 219.58 13.8378 220.374C19.6339 224.091 27.843 224.046 74.4786 223.788L75.0112 223.785C125.395 223.506 126.476 223.458 130.398 221.352C135.712 218.498 141.398 212.853 144.156 207.694C146.35 203.59 146.404 202.677 146.693 165.25L146.987 127H166.026C176.915 127 184.922 127.386 184.731 127.902C184.548 128.398 180.348 133.162 175.398 138.488C163.311 151.495 162.953 152.372 162.939 169C162.925 184.878 163.715 187.357 168.921 187.787C172.271 188.063 173.69 186.779 207.648 152.754C242.619 117.714 242.898 117.402 242.898 113.294C242.898 110.25 242.17 108.273 240.148 105.829C238.636 104 222.701 87.7651 204.739 69.7521C176.191 41.1231 171.697 37.0001 169.045 37.0001C167.044 37.0001 165.482 37.7561 164.455 39.2231Z" fill="#4AA4E1"/>
<path d="M296.898 41.7731L280.398 42.0461L280.661 111.523L280.925 181H293.911H306.898L306.915 132.25L306.931 83.5001L314.788 98.5001C319.11 106.75 328.082 124.075 334.727 137L346.808 160.5H351.423H356.037L372.552 129C381.634 111.675 390.817 94.3501 392.958 90.5001L396.85 83.5001L396.874 132.25L396.898 181H410.398H423.898V111.476V41.9531L406.797 42.2261L389.695 42.5001L371.039 79.6631L352.383 116.827L333.5 79.6631C323.113 59.2241 314.342 42.2751 314.007 42.0001C313.672 41.7251 305.973 41.6231 296.898 41.7731Z" fill="#00305C"/>
<path fill-rule="evenodd" clip-rule="evenodd" d="M470.898 79.3921C468.423 80.1181 464.655 81.4521 462.524 82.3571C458.577 84.0331 446.479 92.2511 445.408 93.9851C445.083 94.5091 447.154 99.2061 450.009 104.421L455.201 113.903L459.678 109.962C467.374 103.188 474.033 100.55 484.398 100.17C492.492 99.8731 493.75 100.076 496.898 102.19C501.237 105.103 503.894 110.21 503.896 115.637L503.898 119.773L486.648 120.241C466.388 120.791 459.151 122.57 451.015 129.002C443.449 134.982 440.616 140.549 440.096 150.456C439.553 160.79 441.896 166.853 448.997 173.495C457.078 181.054 461.27 182.455 475.898 182.479C487.115 182.498 488.86 182.258 492.898 180.142C495.373 178.845 498.86 176.395 500.648 174.696L503.898 171.608V176.304V181H516.942H529.986L529.692 142.25L529.398 103.5L526.628 97.8581C523.243 90.9671 516.638 84.6961 509.073 81.1931C503.917 78.8051 502.118 78.5421 489.398 78.3181C480.052 78.1531 473.902 78.5101 470.898 79.3921ZM482.398 162.727C496.754 161.885 503.74 154.892 503.854 141.25L503.898 136L491.148 136.076C475.48 136.17 469.451 138.096 466.408 143.98C463.262 150.064 465.753 157.892 471.898 161.234C474.669 162.741 476.856 163.052 482.398 162.727Z" fill="#00305C"/>
<path fill-rule="evenodd" clip-rule="evenodd" d="M601.898 78.0371C590.449 79.2191 582.586 82.6571 577.09 88.8851L574.782 91.5001L575.09 85.2481L575.398 78.9961L562.661 78.9981L549.925 79.0001L549.661 149.5L549.398 220H562.131H574.864L575.131 194.875L575.398 169.75L579.398 173.413C586.789 180.181 592.199 182.325 603.093 182.803C614.451 183.301 623.342 181.129 631.173 175.941C645.094 166.721 654.898 147.322 654.898 129C654.898 104.539 638.413 81.4411 618.898 78.5581C610.354 77.2951 609.369 77.2651 601.898 78.0371ZM624.514 145.191C632.085 130.251 626.581 108.375 613.683 102.142C600.994 96.0091 584.995 100.898 578.531 112.884C576.256 117.102 575.558 119.906 575.149 126.462C574.03 144.398 577.333 152.611 587.715 157.709C592.291 159.957 594.761 160.5 600.398 160.5C611.614 160.5 619.196 155.687 624.514 145.191Z" fill="#00305C"/>
<path d="M669.898 130V181H682.898H695.898V130V79.0001H682.898H669.898V130Z" fill="#00305C"/>
<path d="M675.915 37.8511C671.05 40.4601 668.686 44.0821 668.197 49.6761C667.658 55.8361 670.175 60.6791 675.502 63.7341C685.596 69.5211 697.904 62.5781 697.894 51.1021C697.885 39.5391 686.061 32.4101 675.915 37.8511Z" fill="#00305C"/>
<path fill-rule="evenodd" clip-rule="evenodd" d="M749.456 78.0611C737.94 79.4061 727.029 84.2731 717.619 92.2621L714.84 94.6211L719.954 103.811C722.766 108.865 725.151 113 725.252 113C725.354 113 728.128 110.974 731.418 108.499C739.681 102.279 746.611 99.8011 755.993 99.7091C767.985 99.5921 773.319 103.779 774.516 114.25L775.173 120H760.994C733.628 120 720.378 125.368 713.455 139.261C711.436 143.313 710.899 145.877 710.904 151.446C710.907 155.326 711.372 160.167 711.938 162.203C713.595 168.169 719.846 175.154 726.998 179.031C733.33 182.463 733.53 182.5 745.898 182.5C759.857 182.5 764.142 181.236 771.199 175.041L774.898 171.793V176.396V181H787.898H800.898V143.538C800.898 107.671 800.807 105.831 798.752 100.338C795.101 90.5821 785.096 81.8841 774.398 79.1671C768.398 77.6431 757.264 77.1491 749.456 78.0611ZM772.404 152.347C773.313 150.43 774.243 145.968 774.47 142.431L774.882 136L762.14 136.044C744.4 136.105 738.276 138.669 735.752 147.092C734.817 150.214 734.939 151.407 736.519 154.588C739.067 159.718 742.773 162.185 748.799 162.765C758.642 163.71 769.229 159.038 772.404 152.347Z" fill="#00305A"/>
</svg>
