<svg width="311" height="197" viewBox="0 0 311 197" fill="none" xmlns="http://www.w3.org/2000/svg">
<path d="M245.313 38.536C247.266 36.5834 250.432 36.5834 252.385 38.536L309.059 95.2089C311.011 97.1615 311.011 100.328 309.059 102.28L252.338 159C250.411 160.927 247.287 160.927 245.36 159L237.535 151.175C235.583 149.222 235.583 146.057 237.535 144.104L272.962 109H229V179C229 188.941 220.941 197 211 197H99.9999C90.0588 197 81.9999 188.941 81.9999 179V133C81.9999 131.975 82.0614 130.975 82.1767 130H131.447C136.221 130 140.799 128.104 144.175 124.728L175.631 93.2723C179.006 89.8967 183.585 87.9999 188.359 87.9999H272.153L237.535 53.3846C235.583 51.432 235.583 48.2659 237.535 46.3134L245.313 38.536Z" fill="#4AA4E1"/>
<path d="M212 0C221.941 0 230 8.05888 230 18V67H179.661C174.887 67 170.308 68.8968 166.932 72.2725L135.476 103.728C132.101 107.103 127.523 109 122.749 109H38.3698L72.9869 143.615C74.9396 145.568 74.9396 148.734 72.9869 150.687L65.2086 158.465C63.256 160.417 60.0898 160.417 58.1373 158.465L1.46448 101.791C-0.488144 99.8384 -0.488144 96.6723 1.46448 94.7197L58.1842 38C60.111 36.0732 63.2349 36.0734 65.1617 38L72.9869 45.8252C74.9394 47.7778 74.9394 50.9429 72.9869 52.8955L37.5602 88H82.9996V18C82.9996 8.05898 91.0587 0.000172937 101 0H212Z" fill="#0B5182"/>
</svg>
